# xmcd CD database file
#
# Track frame offsets:
#	187
#	20975
#	40895
#	61650
#
# Disc length: 1087 seconds
#
# Revision: 0
# Processed by: cddbd v1.5PL3 Copyright (c) Steve Scherf et al.
# Submitted via: CDex 1.51
#
DISCID=2e043d04
DTITLE=Smap - たぶんオーライ
DYEAR=1994
DGENRE=JPop
TTITLE0=たぶんオーライ
TTITLE1=僕の自転車の後ろに乗りなよ
TTITLE2=たぶんオーライ(カラオケ)
TTITLE3=僕の自転車の後ろに乗りなよ(カラオケ)
EXTD=YEAR: 1994
EXTT0=
EXTT1=
EXTT2=
EXTT3=
PLAYORDER=
